<svg width="82" height="16" viewBox="0 0 82 16" fill="none" xmlns="http://www.w3.org/2000/svg">
<path d="M3.80236 11.1661V7.17035H0V5.52696H3.80236V1.49902H5.54243V5.52696L9.26423 5.52695V7.17034L5.54243 7.17035V11.1661H3.80236Z" fill="#FF8D72"/>
<path d="M10.5381 11.9716V0.693359H12.4554V5.38187H17.9011V0.693359H19.8184V11.9716H17.9011V7.08971H12.4554V11.9716H10.5381Z" fill="#EA3C12"/>
<path d="M24.9689 11.9716C24.346 11.9716 23.7874 11.8265 23.2933 11.5365C22.7992 11.2358 22.4072 10.8383 22.1171 10.3443C21.8379 9.83941 21.6982 9.2863 21.6982 8.68477C21.6982 8.21215 21.8056 7.7664 22.0205 7.3475C22.246 6.91785 22.5576 6.55802 22.955 6.26801C22.5576 5.978 22.2514 5.62892 22.0366 5.22075C21.8217 4.80185 21.7144 4.36683 21.7144 3.9157C21.7144 3.3142 21.854 2.77177 22.1333 2.28842C22.4233 1.80507 22.8099 1.41839 23.2933 1.12838C23.7767 0.838365 24.3137 0.693359 24.9045 0.693359H29.448V2.4012H25.1139C24.8453 2.4012 24.5983 2.47102 24.3728 2.61065C24.1472 2.73955 23.9646 2.91678 23.825 3.14234C23.6961 3.3679 23.6316 3.62569 23.6316 3.9157C23.6316 4.17349 23.7015 4.41516 23.8411 4.64073C23.9807 4.86629 24.1633 5.04889 24.3889 5.18853C24.6145 5.31742 24.8669 5.38187 25.1461 5.38187H28.8841V7.08971H25.2428C24.9206 7.08971 24.636 7.16489 24.3889 7.31527C24.1418 7.46565 23.9485 7.66436 23.8089 7.9114C23.68 8.14771 23.6155 8.41087 23.6155 8.70088C23.6155 8.98018 23.68 9.24328 23.8089 9.49035C23.9485 9.72663 24.1365 9.91997 24.3728 10.0704C24.6199 10.21 24.8991 10.2798 25.2106 10.2798H29.448V11.9716H24.9689Z" fill="#EA3C12"/>
<path d="M37.2951 15.4839C36.7258 15.4839 36.2264 15.3765 35.7967 15.1617C35.3671 14.9576 35.0395 14.6515 34.8139 14.2433C34.5884 13.8459 34.4756 13.3679 34.4756 12.8094C34.4756 12.3045 34.5723 11.746 34.7656 11.1337C34.9697 10.5215 35.3349 9.89314 35.8612 9.24868C36.3875 8.60421 37.134 7.98659 38.1007 7.39583V2.38509H35.7645V0.693359H40.018V12.5194C40.018 13.0887 39.9106 13.5988 39.6958 14.05C39.4917 14.5011 39.1856 14.8502 38.7774 15.0972C38.38 15.355 37.8859 15.4839 37.2951 15.4839ZM37.1662 13.76C37.3489 13.76 37.51 13.7116 37.6496 13.6149C37.7892 13.5183 37.8967 13.3787 37.9718 13.196C38.047 13.0242 38.0846 12.8148 38.0846 12.5677V9.36146C37.4939 9.8341 37.0696 10.2852 36.8118 10.7148C36.554 11.1445 36.3983 11.5258 36.3445 11.8588C36.2908 12.181 36.264 12.4281 36.264 12.5999C36.264 12.9759 36.3553 13.2605 36.5379 13.4538C36.7205 13.6579 36.93 13.76 37.1662 13.76Z" fill="#EA3C12"/>
<path d="M46.8794 12.1649C45.9879 12.1649 45.1984 11.9823 44.511 11.6171C43.8236 11.2411 43.2811 10.7094 42.8837 10.022C42.4971 9.33463 42.3037 8.51291 42.3037 7.55695V0.693359H44.221V7.71806C44.221 8.21215 44.3284 8.66866 44.5432 9.08756C44.7688 9.50646 45.0803 9.84481 45.4777 10.1026C45.8751 10.3497 46.3478 10.4732 46.8955 10.4732C47.4433 10.4732 47.9106 10.3497 48.2973 10.1026C48.6947 9.84481 49.0008 9.50646 49.2156 9.08756C49.4305 8.66866 49.5379 8.21215 49.5379 7.71806V0.693359H51.4713V7.55695C51.4713 8.51291 51.2726 9.33463 50.8751 10.022C50.4777 10.7094 49.9353 11.2411 49.2479 11.6171C48.5605 11.9823 47.771 12.1649 46.8794 12.1649Z" fill="#EA3C12"/>
<path d="M56.7726 11.9716C56.139 11.9716 55.5804 11.8319 55.097 11.5527C54.6245 11.2626 54.2539 10.876 53.9853 10.3926C53.7275 9.90926 53.5986 9.37217 53.5986 8.78144V0.693359H55.532V9.02311C55.532 9.36686 55.6448 9.66218 55.8704 9.90926C56.1067 10.1563 56.4075 10.2798 56.7726 10.2798H59.7694V11.9716H56.7726Z" fill="#EA3C12"/>
<path d="M69.5279 15.5C68.9479 15.5 68.4377 15.3926 67.9973 15.1778C67.5677 14.9629 67.2347 14.6461 66.9984 14.2272C66.7728 13.819 66.6601 13.3303 66.6601 12.761C66.6601 12.6214 66.6655 12.4764 66.6762 12.326C66.6869 12.1864 66.703 12.0414 66.7245 11.891C65.8438 11.9232 65.0382 11.7997 64.3078 11.5204C63.5773 11.2411 62.9437 10.8437 62.4066 10.3281C61.8803 9.81257 61.4721 9.20572 61.1821 8.50752C60.8921 7.7986 60.7471 7.03061 60.7471 6.20354C60.7471 5.41944 60.8814 4.68367 61.1499 3.99624C61.4184 3.30881 61.805 2.70193 62.3099 2.17562C62.8148 1.6493 63.4216 1.24114 64.1305 0.951128C64.8394 0.650376 65.6289 0.5 66.4989 0.5C67.3797 0.5 68.1746 0.645005 68.8835 0.935015C69.5924 1.21429 70.1992 1.61171 70.7041 2.12728C71.209 2.64286 71.5956 3.23899 71.8641 3.91568C72.1326 4.58163 72.2669 5.30129 72.2669 6.07465V12.5193C72.2669 13.0886 72.1596 13.5988 71.9447 14.0499C71.7406 14.5011 71.4345 14.8555 71.0263 15.1133C70.6181 15.3711 70.1187 15.5 69.5279 15.5ZM69.3991 13.776C69.6891 13.776 69.9146 13.6687 70.0757 13.4538C70.2476 13.239 70.3335 12.9436 70.3335 12.5677V9.21643C69.8824 9.56018 69.5279 9.89852 69.2702 10.2315C69.0124 10.5644 68.8244 10.8813 68.7062 11.1821C68.5989 11.4828 68.529 11.7514 68.4968 11.9876C68.4753 12.2239 68.4646 12.4119 68.4646 12.5516C68.4646 12.8093 68.5075 13.0295 68.5935 13.2121C68.6794 13.3948 68.7922 13.5344 68.9318 13.631C69.0822 13.7277 69.2379 13.776 69.3991 13.776ZM66.4989 10.2154C66.6708 10.2154 66.8266 10.21 66.9662 10.1992C67.1058 10.1777 67.2562 10.1509 67.4173 10.1187C67.5891 9.79646 67.804 9.46882 68.0618 9.13588C68.3196 8.80293 68.6364 8.48067 69.0124 8.16917C69.3883 7.84694 69.8287 7.54082 70.3335 7.25081V6.07465C70.3335 5.52685 70.2369 5.01665 70.0435 4.54404C69.8609 4.07143 69.5924 3.66327 69.2379 3.31955C68.8942 2.96509 68.4914 2.69119 68.0296 2.49785C67.5677 2.29377 67.0575 2.19173 66.4989 2.19173C65.9511 2.19173 65.441 2.29377 64.9683 2.49785C64.5065 2.70193 64.1037 2.98658 63.76 3.35177C63.4162 3.70623 63.1477 4.13051 62.9544 4.6246C62.761 5.10795 62.6644 5.63426 62.6644 6.20354C62.6644 6.77283 62.761 7.30451 62.9544 7.7986C63.1477 8.28196 63.4162 8.70626 63.76 9.07143C64.1037 9.42589 64.5065 9.70518 64.9683 9.90924C65.441 10.1133 65.9511 10.2154 66.4989 10.2154Z" fill="#EA3C12"/>
<path d="M77.1584 11.9716C76.5354 11.9716 75.9769 11.8265 75.4828 11.5365C74.9887 11.2358 74.5967 10.8383 74.3067 10.3443C74.0274 9.83941 73.8877 9.2863 73.8877 8.68477C73.8877 8.21215 73.9952 7.7664 74.2099 7.3475C74.4355 6.91785 74.747 6.55802 75.1444 6.26801C74.747 5.978 74.4409 5.62892 74.226 5.22075C74.0113 4.80185 73.9039 4.36683 73.9039 3.9157C73.9039 3.3142 74.0435 2.77177 74.3227 2.28842C74.6127 1.80507 74.9994 1.41839 75.4828 1.12838C75.9661 0.838365 76.5032 0.693359 77.0939 0.693359H81.6376V2.4012H77.3035C77.0349 2.4012 76.7878 2.47102 76.5622 2.61065C76.3367 2.73955 76.1541 2.91678 76.0144 3.14234C75.8855 3.3679 75.8211 3.62569 75.8211 3.9157C75.8211 4.17349 75.8909 4.41516 76.0306 4.64073C76.1702 4.86629 76.3528 5.04889 76.5783 5.18853C76.8039 5.31742 77.0564 5.38187 77.3356 5.38187H81.0737V7.08971H77.4323C77.11 7.08971 76.8254 7.16489 76.5783 7.31527C76.3314 7.46565 76.138 7.66436 75.9983 7.9114C75.8694 8.14771 75.8051 8.41087 75.8051 8.70088C75.8051 8.98018 75.8694 9.24328 75.9983 9.49035C76.138 9.72663 76.326 9.91997 76.5622 10.0704C76.8093 10.21 77.0886 10.2798 77.4 10.2798H81.6376V11.9716H77.1584Z" fill="#EA3C12"/>
</svg>
