<svg width="14" height="17" viewBox="0 0 14 17" fill="none" xmlns="http://www.w3.org/2000/svg">
<path d="M11.5139 2.60256C10.9062 1.9893 10.1964 1.51393 9.40287 1.18867C7.01491 0.213514 4.29491 0.77204 2.47434 2.60509C1.26668 3.82446 0.600098 5.37688 0.600098 6.98214C0.600098 8.58487 1.26626 10.139 2.47434 11.3571L3.13883 12.0209C4.47242 13.3493 5.62244 14.4962 6.60916 16.0905L6.99298 16.715L7.37932 16.0905C8.36604 14.4962 9.51606 13.3493 10.8473 12.0223L11.5137 11.355C14.0289 8.8194 14.0289 5.13835 11.5139 2.60256ZM8.97916 9.27098C7.88281 10.3779 6.10567 10.3779 5.00911 9.27098C3.91296 8.16782 3.91296 6.37624 5.00911 5.27098C6.10567 4.16782 7.88281 4.16782 8.97916 5.27098C10.073 6.37624 10.073 8.1674 8.97916 9.27098Z" fill="#F48A71"/>
</svg>
