<svg width="16" height="17" viewBox="0 0 16 17" fill="none" xmlns="http://www.w3.org/2000/svg">
<path fill-rule="evenodd" clip-rule="evenodd" d="M8 0.714966C12.418 0.714966 16 4.297 16 8.71497C16 13.1329 12.418 16.715 8 16.715C3.58203 16.715 0 13.1329 0 8.71497C0 4.297 3.58203 0.714966 8 0.714966ZM6.89063 4.68892H7.86849C8.04688 4.68892 8.19401 4.83606 8.19401 5.01445V8.78267H11.6328C11.8125 8.78267 11.9583 8.92981 11.9583 9.1082V10.0861C11.9583 10.2657 11.8112 10.4116 11.6328 10.4116H6.5638V5.01445C6.5638 4.83476 6.71094 4.68892 6.89063 4.68892ZM8 2.53137C11.4154 2.53137 14.1836 5.2996 14.1836 8.71497C14.1836 12.1303 11.4154 14.8986 8 14.8986C4.58464 14.8986 1.81641 12.1303 1.81641 8.71497C1.81641 5.3009 4.58464 2.53137 8 2.53137Z" fill="#FF8D72"/>
</svg>
